<mxfile host="Electron" modified="2025-01-14T09:12:39.279Z" agent="Mozilla/5.0 (Macintosh; Intel Mac OS X 10_15_7) AppleWebKit/537.36 (KHTML, like Gecko) draw.io/24.4.8 Chrome/124.0.6367.207 Electron/30.0.6 Safari/537.36" etag="prOPj5KZ6MXBOIZfXlLS" version="24.4.8" type="device">
  <diagram id="C5RBs43oDa-KdzZeNtuy" name="Page-1">
    <mxGraphModel dx="2099" dy="969" grid="1" gridSize="10" guides="1" tooltips="1" connect="1" arrows="1" fold="1" page="1" pageScale="1" pageWidth="827" pageHeight="1169" math="0" shadow="0">
      <root>
        <mxCell id="WIyWlLk6GJQsqaUBKTNV-0" />
        <mxCell id="WIyWlLk6GJQsqaUBKTNV-1" parent="WIyWlLk6GJQsqaUBKTNV-0" />
        <mxCell id="WIyWlLk6GJQsqaUBKTNV-2" value="" style="rounded=0;html=1;jettySize=auto;orthogonalLoop=1;fontSize=11;endArrow=block;endFill=0;endSize=8;strokeWidth=1;shadow=0;labelBackgroundColor=none;edgeStyle=orthogonalEdgeStyle;" parent="WIyWlLk6GJQsqaUBKTNV-1" source="WIyWlLk6GJQsqaUBKTNV-3" target="WIyWlLk6GJQsqaUBKTNV-6" edge="1">
          <mxGeometry relative="1" as="geometry" />
        </mxCell>
        <mxCell id="WIyWlLk6GJQsqaUBKTNV-3" value="Login&lt;div&gt;Requirement:&lt;/div&gt;&lt;div&gt;1. Username&lt;/div&gt;&lt;div&gt;2. Password&lt;/div&gt;" style="rounded=1;whiteSpace=wrap;html=1;fontSize=12;glass=0;strokeWidth=1;shadow=0;" parent="WIyWlLk6GJQsqaUBKTNV-1" vertex="1">
          <mxGeometry x="-60" y="50" width="120" height="70" as="geometry" />
        </mxCell>
        <mxCell id="WIyWlLk6GJQsqaUBKTNV-4" value="Admin" style="rounded=0;html=1;jettySize=auto;orthogonalLoop=1;fontSize=11;endArrow=block;endFill=0;endSize=8;strokeWidth=1;shadow=0;labelBackgroundColor=none;edgeStyle=orthogonalEdgeStyle;exitX=0;exitY=0.5;exitDx=0;exitDy=0;" parent="WIyWlLk6GJQsqaUBKTNV-1" source="WIyWlLk6GJQsqaUBKTNV-6" edge="1">
          <mxGeometry x="-0.1242" y="-10" relative="1" as="geometry">
            <mxPoint as="offset" />
            <mxPoint x="-459.9333333333334" y="229.99666666666673" as="sourcePoint" />
            <mxPoint x="-460" y="280.05" as="targetPoint" />
          </mxGeometry>
        </mxCell>
        <mxCell id="Pp9x8BNT4OFfkWrNs4fQ-55" value="Normal Staff" style="edgeStyle=orthogonalEdgeStyle;rounded=0;orthogonalLoop=1;jettySize=auto;html=1;" edge="1" parent="WIyWlLk6GJQsqaUBKTNV-1" source="WIyWlLk6GJQsqaUBKTNV-6">
          <mxGeometry x="-0.3077" relative="1" as="geometry">
            <mxPoint x="240" y="280" as="targetPoint" />
            <Array as="points">
              <mxPoint x="240" y="210" />
              <mxPoint x="240" y="280" />
            </Array>
            <mxPoint as="offset" />
          </mxGeometry>
        </mxCell>
        <mxCell id="WIyWlLk6GJQsqaUBKTNV-6" value="User Check" style="rhombus;whiteSpace=wrap;html=1;shadow=0;fontFamily=Helvetica;fontSize=12;align=center;strokeWidth=1;spacing=6;spacingTop=-4;" parent="WIyWlLk6GJQsqaUBKTNV-1" vertex="1">
          <mxGeometry x="-50" y="170" width="100" height="80" as="geometry" />
        </mxCell>
        <mxCell id="WIyWlLk6GJQsqaUBKTNV-11" value="Display Item&lt;div&gt;Display:&lt;/div&gt;&lt;div&gt;1. No&lt;/div&gt;&lt;div&gt;2. Name&lt;/div&gt;&lt;div&gt;3. ID&lt;/div&gt;&lt;div&gt;4. Category&lt;/div&gt;&lt;div&gt;5. Action for Admin can &lt;font color=&quot;#ff0000&quot;&gt;Edit or Delete&lt;/font&gt;&lt;/div&gt;" style="rounded=1;whiteSpace=wrap;html=1;fontSize=12;glass=0;strokeWidth=1;shadow=0;" parent="WIyWlLk6GJQsqaUBKTNV-1" vertex="1">
          <mxGeometry x="-400" y="480.05" width="120" height="159.95" as="geometry" />
        </mxCell>
        <mxCell id="Pp9x8BNT4OFfkWrNs4fQ-32" value="Add User" style="edgeStyle=orthogonalEdgeStyle;rounded=0;orthogonalLoop=1;jettySize=auto;html=1;entryX=0.5;entryY=0;entryDx=0;entryDy=0;" edge="1" parent="WIyWlLk6GJQsqaUBKTNV-1" source="WIyWlLk6GJQsqaUBKTNV-12" target="Pp9x8BNT4OFfkWrNs4fQ-3">
          <mxGeometry relative="1" as="geometry" />
        </mxCell>
        <mxCell id="Pp9x8BNT4OFfkWrNs4fQ-33" value="Display User" style="edgeStyle=orthogonalEdgeStyle;rounded=0;orthogonalLoop=1;jettySize=auto;html=1;entryX=0.5;entryY=0;entryDx=0;entryDy=0;" edge="1" parent="WIyWlLk6GJQsqaUBKTNV-1" source="WIyWlLk6GJQsqaUBKTNV-12" target="Pp9x8BNT4OFfkWrNs4fQ-4">
          <mxGeometry relative="1" as="geometry">
            <Array as="points">
              <mxPoint x="-620" y="380" />
            </Array>
          </mxGeometry>
        </mxCell>
        <mxCell id="Pp9x8BNT4OFfkWrNs4fQ-34" value="Add Item" style="edgeStyle=orthogonalEdgeStyle;rounded=0;orthogonalLoop=1;jettySize=auto;html=1;entryX=0.5;entryY=0;entryDx=0;entryDy=0;" edge="1" parent="WIyWlLk6GJQsqaUBKTNV-1" source="WIyWlLk6GJQsqaUBKTNV-12" target="Pp9x8BNT4OFfkWrNs4fQ-5">
          <mxGeometry relative="1" as="geometry" />
        </mxCell>
        <mxCell id="Pp9x8BNT4OFfkWrNs4fQ-35" value="Display Item" style="edgeStyle=orthogonalEdgeStyle;rounded=0;orthogonalLoop=1;jettySize=auto;html=1;entryX=0.5;entryY=0;entryDx=0;entryDy=0;" edge="1" parent="WIyWlLk6GJQsqaUBKTNV-1" source="WIyWlLk6GJQsqaUBKTNV-12" target="WIyWlLk6GJQsqaUBKTNV-11">
          <mxGeometry relative="1" as="geometry">
            <Array as="points">
              <mxPoint x="-340" y="410" />
            </Array>
          </mxGeometry>
        </mxCell>
        <mxCell id="Pp9x8BNT4OFfkWrNs4fQ-36" value="Barcode scan" style="edgeStyle=orthogonalEdgeStyle;rounded=0;orthogonalLoop=1;jettySize=auto;html=1;entryX=0.5;entryY=0;entryDx=0;entryDy=0;" edge="1" parent="WIyWlLk6GJQsqaUBKTNV-1" source="WIyWlLk6GJQsqaUBKTNV-12" target="Pp9x8BNT4OFfkWrNs4fQ-6">
          <mxGeometry relative="1" as="geometry">
            <Array as="points">
              <mxPoint x="-200" y="370" />
            </Array>
          </mxGeometry>
        </mxCell>
        <mxCell id="Pp9x8BNT4OFfkWrNs4fQ-37" value="History" style="edgeStyle=orthogonalEdgeStyle;rounded=0;orthogonalLoop=1;jettySize=auto;html=1;entryX=0.5;entryY=0;entryDx=0;entryDy=0;" edge="1" parent="WIyWlLk6GJQsqaUBKTNV-1" source="WIyWlLk6GJQsqaUBKTNV-12" target="Pp9x8BNT4OFfkWrNs4fQ-28">
          <mxGeometry relative="1" as="geometry">
            <Array as="points">
              <mxPoint x="-60" y="330" />
            </Array>
          </mxGeometry>
        </mxCell>
        <mxCell id="WIyWlLk6GJQsqaUBKTNV-12" value="&lt;div style=&quot;&quot;&gt;&lt;span style=&quot;background-color: initial;&quot;&gt;Dashboard&lt;/span&gt;&lt;/div&gt;&lt;div style=&quot;&quot;&gt;&lt;span style=&quot;background-color: initial;&quot;&gt;Menu:&lt;/span&gt;&lt;/div&gt;&lt;div style=&quot;&quot;&gt;&lt;span style=&quot;background-color: initial;&quot;&gt;1. Add User&lt;/span&gt;&lt;/div&gt;&lt;div style=&quot;&quot;&gt;&lt;span style=&quot;background-color: initial;&quot;&gt;2. Display User&lt;/span&gt;&lt;/div&gt;&lt;div style=&quot;&quot;&gt;&lt;span style=&quot;background-color: initial;&quot;&gt;3. Add Item&lt;/span&gt;&lt;/div&gt;&lt;div style=&quot;&quot;&gt;&lt;span style=&quot;background-color: initial;&quot;&gt;4. Display Item&lt;/span&gt;&lt;/div&gt;&lt;div style=&quot;&quot;&gt;&lt;span style=&quot;background-color: initial;&quot;&gt;5. Barcode Scan&lt;/span&gt;&lt;/div&gt;&lt;div style=&quot;&quot;&gt;&lt;span style=&quot;background-color: initial;&quot;&gt;6. History&lt;/span&gt;&lt;/div&gt;&lt;div style=&quot;&quot;&gt;&lt;span style=&quot;background-color: initial;&quot;&gt;7. Log Out&lt;/span&gt;&lt;/div&gt;" style="rounded=1;whiteSpace=wrap;html=1;fontSize=12;glass=0;strokeWidth=1;shadow=0;align=center;" parent="WIyWlLk6GJQsqaUBKTNV-1" vertex="1">
          <mxGeometry x="-520" y="280.05" width="120" height="150" as="geometry" />
        </mxCell>
        <mxCell id="Pp9x8BNT4OFfkWrNs4fQ-3" value="Add User&lt;div&gt;Requirement:&lt;/div&gt;&lt;div&gt;1. First name&lt;/div&gt;&lt;div&gt;2. Last name&lt;/div&gt;&lt;div&gt;3. Email&lt;/div&gt;&lt;div&gt;4. Role:&lt;/div&gt;&lt;div&gt;- Admin&lt;/div&gt;&lt;div&gt;- Normal Staff&lt;/div&gt;" style="rounded=1;whiteSpace=wrap;html=1;fontSize=12;glass=0;strokeWidth=1;shadow=0;" vertex="1" parent="WIyWlLk6GJQsqaUBKTNV-1">
          <mxGeometry x="-820" y="480" width="120" height="160" as="geometry" />
        </mxCell>
        <mxCell id="Pp9x8BNT4OFfkWrNs4fQ-4" value="Display User&lt;div&gt;Display:&lt;/div&gt;&lt;div&gt;1. No&lt;/div&gt;&lt;div&gt;2. Username&lt;/div&gt;&lt;div&gt;3. Full Name&lt;/div&gt;&lt;div&gt;4. Email&lt;/div&gt;&lt;div&gt;5. Role&lt;/div&gt;&lt;div&gt;6. Action for Admin can &lt;font color=&quot;#ff0000&quot;&gt;Edit and Delete&lt;/font&gt;&lt;/div&gt;" style="rounded=1;whiteSpace=wrap;html=1;fontSize=12;glass=0;strokeWidth=1;shadow=0;" vertex="1" parent="WIyWlLk6GJQsqaUBKTNV-1">
          <mxGeometry x="-680" y="480.05" width="120" height="159.95" as="geometry" />
        </mxCell>
        <mxCell id="Pp9x8BNT4OFfkWrNs4fQ-5" value="Add Item&lt;div&gt;We have two part:&lt;/div&gt;&lt;div&gt;1. Add category:&lt;/div&gt;&lt;div&gt;&lt;div&gt;Requirement:&lt;/div&gt;&lt;div&gt;- Name&lt;/div&gt;&lt;div&gt;- Description&lt;/div&gt;&lt;div&gt;2. Add Item:&lt;/div&gt;&lt;div&gt;Requirement:&lt;/div&gt;&lt;div&gt;- Name&lt;/div&gt;&lt;div&gt;- Category (Choose)&lt;/div&gt;&lt;/div&gt;" style="rounded=1;whiteSpace=wrap;html=1;fontSize=12;glass=0;strokeWidth=1;shadow=0;" vertex="1" parent="WIyWlLk6GJQsqaUBKTNV-1">
          <mxGeometry x="-540" y="480.05" width="120" height="179.95" as="geometry" />
        </mxCell>
        <mxCell id="Pp9x8BNT4OFfkWrNs4fQ-6" value="Barcode scan&lt;div&gt;Requirement:&lt;/div&gt;&lt;div&gt;- Barcode picture that identify each item&lt;/div&gt;&lt;div&gt;Result:&lt;/div&gt;&lt;div&gt;- If true, show the information of the item&lt;/div&gt;&lt;div&gt;- &lt;font color=&quot;#ff0000&quot;&gt;If not, don&#39;t show anything&lt;/font&gt;&lt;/div&gt;" style="rounded=1;whiteSpace=wrap;html=1;fontSize=12;glass=0;strokeWidth=1;shadow=0;" vertex="1" parent="WIyWlLk6GJQsqaUBKTNV-1">
          <mxGeometry x="-260" y="480.05" width="120" height="159.95" as="geometry" />
        </mxCell>
        <mxCell id="Pp9x8BNT4OFfkWrNs4fQ-19" value="Log Out" style="endArrow=classic;html=1;rounded=0;entryX=0;entryY=0.5;entryDx=0;entryDy=0;" edge="1" parent="WIyWlLk6GJQsqaUBKTNV-1" target="WIyWlLk6GJQsqaUBKTNV-3">
          <mxGeometry width="50" height="50" relative="1" as="geometry">
            <mxPoint x="-500" y="280" as="sourcePoint" />
            <mxPoint x="-450" y="230" as="targetPoint" />
            <Array as="points">
              <mxPoint x="-500" y="85" />
            </Array>
          </mxGeometry>
        </mxCell>
        <mxCell id="Pp9x8BNT4OFfkWrNs4fQ-28" value="History&lt;div&gt;Display:&lt;/div&gt;&lt;div&gt;1. No&lt;/div&gt;&lt;div&gt;2. Item&lt;/div&gt;&lt;div&gt;3. who borrowed&lt;/div&gt;&lt;div&gt;4. who returned&lt;/div&gt;&lt;div&gt;5. Quantity&lt;/div&gt;&lt;div&gt;6. Borrowed time&lt;/div&gt;&lt;div&gt;7. Returned time&lt;/div&gt;" style="rounded=1;whiteSpace=wrap;html=1;fontSize=12;glass=0;strokeWidth=1;shadow=0;" vertex="1" parent="WIyWlLk6GJQsqaUBKTNV-1">
          <mxGeometry x="-120" y="480" width="120" height="160" as="geometry" />
        </mxCell>
        <mxCell id="Pp9x8BNT4OFfkWrNs4fQ-47" value="&lt;div style=&quot;&quot;&gt;&lt;span style=&quot;background-color: initial;&quot;&gt;Dashboard&lt;/span&gt;&lt;/div&gt;&lt;div style=&quot;&quot;&gt;&lt;span style=&quot;background-color: initial;&quot;&gt;Menu:&lt;/span&gt;&lt;/div&gt;&lt;div style=&quot;&quot;&gt;&lt;span style=&quot;background-color: initial;&quot;&gt;1. Barcode Scan&lt;/span&gt;&lt;/div&gt;&lt;div style=&quot;&quot;&gt;&lt;span style=&quot;background-color: initial;&quot;&gt;2. Log Out&lt;/span&gt;&lt;/div&gt;" style="rounded=1;whiteSpace=wrap;html=1;fontSize=12;glass=0;strokeWidth=1;shadow=0;align=center;" vertex="1" parent="WIyWlLk6GJQsqaUBKTNV-1">
          <mxGeometry x="190" y="280.05" width="120" height="150" as="geometry" />
        </mxCell>
        <mxCell id="Pp9x8BNT4OFfkWrNs4fQ-54" style="edgeStyle=orthogonalEdgeStyle;rounded=0;orthogonalLoop=1;jettySize=auto;html=1;entryX=0.5;entryY=1;entryDx=0;entryDy=0;" edge="1" parent="WIyWlLk6GJQsqaUBKTNV-1" source="Pp9x8BNT4OFfkWrNs4fQ-51" target="Pp9x8BNT4OFfkWrNs4fQ-47">
          <mxGeometry relative="1" as="geometry" />
        </mxCell>
        <mxCell id="Pp9x8BNT4OFfkWrNs4fQ-51" value="Barcode scan&lt;div&gt;Requirement:&lt;/div&gt;&lt;div&gt;- Barcode picture that identify each item&lt;/div&gt;&lt;div&gt;Result:&lt;/div&gt;&lt;div&gt;- If true, show the information of the item&lt;/div&gt;&lt;div&gt;- &lt;font color=&quot;#ff0000&quot;&gt;If not, don&#39;t show anything&lt;/font&gt;&lt;/div&gt;" style="rounded=1;whiteSpace=wrap;html=1;fontSize=12;glass=0;strokeWidth=1;shadow=0;" vertex="1" parent="WIyWlLk6GJQsqaUBKTNV-1">
          <mxGeometry x="190" y="480.05" width="120" height="159.95" as="geometry" />
        </mxCell>
        <mxCell id="Pp9x8BNT4OFfkWrNs4fQ-52" value="Log Out" style="endArrow=classic;html=1;rounded=0;" edge="1" parent="WIyWlLk6GJQsqaUBKTNV-1">
          <mxGeometry x="0.2195" width="50" height="50" relative="1" as="geometry">
            <mxPoint x="290" y="280" as="sourcePoint" />
            <mxPoint x="60" y="100" as="targetPoint" />
            <Array as="points">
              <mxPoint x="290" y="100" />
            </Array>
            <mxPoint as="offset" />
          </mxGeometry>
        </mxCell>
      </root>
    </mxGraphModel>
  </diagram>
</mxfile>
